<svg id="Group_62" data-name="Group 62" xmlns="http://www.w3.org/2000/svg" width="38.569" height="38.569" viewBox="0 0 38.569 38.569">
  <path id="Path_72" data-name="Path 72" d="M108.281,239A19.279,19.279,0,0,0,87.305,265.51q.706-.5,1.439-.965A32.574,32.574,0,0,1,108.281,239Z" transform="translate(-85.788 -238.716)" fill="#ff7f62"/>
  <path id="Path_73" data-name="Path 73" d="M119.354,248.108a32.846,32.846,0,0,1,3.632.207,19.313,19.313,0,0,0-10.626-8.412,31.127,31.127,0,0,0-20.352,23.114A32.509,32.509,0,0,1,119.354,248.108Z" transform="translate(-87.21 -238.987)" fill="#ff7f62"/>
  <path id="Path_74" data-name="Path 74" d="M94.685,265.589a32.53,32.53,0,0,1,30.6,1.965,19.057,19.057,0,0,0-.791-14.707,30.964,30.964,0,0,0-29.8,12.742Z" transform="translate(-87.822 -241.87)" fill="#ff7f62"/>
  <path id="Path_75" data-name="Path 75" d="M91.193,275.593c0,.339.015.676.026,1.012a19.26,19.26,0,0,0,32.691-4.135,30.922,30.922,0,0,0-31.649-.884c-.346.6-.677,1.214-.984,1.84C91.228,274.143,91.193,274.864,91.193,275.593Z" transform="translate(-87.024 -245.333)" fill="#0e153d"/>
</svg>
