<svg id="Group_68" data-name="Group 68" xmlns="http://www.w3.org/2000/svg" width="40.35" height="40.35" viewBox="0 0 40.35 40.35">
  <path id="Path_92" data-name="Path 92" d="M956.7,107.64c-6.746,10.911,1.315-11.357-19.574,1.225a20.172,20.172,0,0,0,32.053-6.632C965.292,101.253,960.384,101.677,956.7,107.64Z" transform="translate(-930.586 -73.823)" fill="#1d1753"/>
  <path id="Path_93" data-name="Path 93" d="M948.444,96.551c5.668,4.828,4.991,5.552,8.463.449,1.913-2.812,6.909-1.078,11.015,1.046a20.176,20.176,0,0,0,.426-14c-4.607-1.2-10.471-.755-14.863,6.35-8.089,13.086,1.865-14.263-24.324,2.2a20.1,20.1,0,0,0,5.3,11.622C938.141,99.764,944.567,93.248,948.444,96.551Z" transform="translate(-929.049 -70.292)" fill="#31419a"/>
  <path id="Path_94" data-name="Path 94" d="M945.53,78.308c6.689,5.7,5.891,6.553,9.989.529,2.163-3.18,7.671-1.433,12.391.924A20.175,20.175,0,0,0,929.022,87.3c0,.019,0,.038,0,.056C933.363,82.106,940.953,74.409,945.53,78.308Z" transform="translate(-929.022 -67.126)" fill="#68cce7"/>
</svg>
