<svg id="Group_65" data-name="Group 65" xmlns="http://www.w3.org/2000/svg" width="31.625" height="34.605" viewBox="0 0 31.625 34.605">
  <path id="Path_83" data-name="Path 83" d="M321.032,252.567v15.945a7.707,7.707,0,0,0,7.707-7.706V244.86A7.707,7.707,0,0,0,321.032,252.567Z" transform="translate(-321.032 -240.608)" fill="#20d3c2"/>
  <path id="Path_84" data-name="Path 84" d="M338.311,246.423v23.044a3.854,3.854,0,0,0,7.707,0V238.716A7.707,7.707,0,0,0,338.311,246.423Z" transform="translate(-326.352 -238.716)" fill="#20d3c2"/>
  <path id="Path_85" data-name="Path 85" d="M355.591,253.308v10.1a7.707,7.707,0,0,0,7.707,7.706v-10.1A7.707,7.707,0,0,0,355.591,253.308Z" transform="translate(-331.673 -243.209)" fill="#20d3c2"/>
</svg>
