<svg xmlns="http://www.w3.org/2000/svg" width="20.956" height="19.999" viewBox="0 0 20.956 19.999">
  <g id="Star_Filled" data-name="Star Filled" transform="translate(-202.364 -654.259)">
    <g id="Group_42" data-name="Group 42">
      <path id="Path_59" data-name="Path 59" d="M223.25,661.758a1.442,1.442,0,0,0-1.164-.981l-5.5-.8-2.46-4.98a1.5,1.5,0,0,0-2.582,0l-2.46,4.98-5.487.8a1.44,1.44,0,0,0-.8,2.457l3.977,3.866-.937,5.473a1.44,1.44,0,0,0,2.091,1.518l4.9-2.585,4.916,2.585a1.438,1.438,0,0,0,.67.166,1.459,1.459,0,0,0,.85-.274,1.444,1.444,0,0,0,.573-1.41l-.937-5.472,3.977-3.867A1.438,1.438,0,0,0,223.25,661.758Z" fill="#20d3c2"/>
    </g>
  </g>
</svg>
